<?xml version="1.0" encoding="UTF-8"?>
<svg id="Capa_1" xmlns="http://www.w3.org/2000/svg" viewBox="0 0 180 180">
  <defs>
    <style>
      .cls-1 {
        fill: #fff;
      }

      .cls-2 {
        fill: #004a98;
      }
    </style>
  </defs>
  <path class="cls-2" d="M97.37,124c18.59.09,35.55-15.16,35.55-33.7,0-20.28-16.97-34.3-35.55-34.29h-16c-18.81,0-34.29,14.02-34.29,34.29,0,18.55,15.48,33.79,34.29,33.7h16Z"/>
  <path class="cls-1" d="M88.51,108.35v-36.83c7.4,2.84,12.66,10.01,12.67,18.41-.01,8.41-5.27,15.57-12.67,18.42M61.72,89.94c.02-8.4,5.26-15.56,12.66-18.41v36.82c-7.4-2.85-12.65-10-12.66-18.41M81.45,58.81c-17.19,0-31.12,13.94-31.12,31.13,0,17.19,13.93,31.12,31.12,31.12,17.19,0,31.12-13.93,31.13-31.12,0-17.19-13.93-31.12-31.13-31.13"/>
  <path class="cls-2" d="M97.37,124c18.59.09,35.55-15.16,35.55-33.7,0-20.28-16.97-34.3-35.55-34.29h-16c-18.81,0-34.29,14.02-34.29,34.29,0,18.55,15.48,33.79,34.29,33.7h16Z"/>
  <path class="cls-1" d="M88.51,108.35v-36.83c7.4,2.84,12.66,10.01,12.67,18.41-.01,8.41-5.27,15.57-12.67,18.42M61.72,89.94c.02-8.4,5.26-15.56,12.66-18.41v36.82c-7.4-2.85-12.65-10-12.66-18.41M81.45,58.81c-17.19,0-31.12,13.94-31.12,31.13,0,17.19,13.93,31.12,31.12,31.12,17.19,0,31.12-13.93,31.13-31.12,0-17.19-13.93-31.12-31.13-31.13"/>
</svg>