<?xml version="1.0" encoding="UTF-8"?>
<svg id="Capa_1" xmlns="http://www.w3.org/2000/svg" xmlns:xlink="http://www.w3.org/1999/xlink" viewBox="0 0 180 180">
  <defs>
    <style>
      .cls-1 {
        fill: url(#Degradado_sin_nombre_4);
      }
    </style>
    <linearGradient id="Degradado_sin_nombre_4" data-name="Degradado sin nombre 4" x1="32.23" y1="90" x2="147.77" y2="90" gradientUnits="userSpaceOnUse">
      <stop offset="0" stop-color="#282c62"/>
      <stop offset="1" stop-color="#0a4b9a"/>
    </linearGradient>
  </defs>
  <path class="cls-1" d="M76.1,72l-15.13,36.09h-9.87l-7.45-28.8c-.45-1.77-.84-2.42-2.22-3.17-2.25-1.22-5.95-2.36-9.21-3.07l.22-1.05h15.89c2.02,0,3.84,1.35,4.31,3.68l3.93,20.89,9.71-24.56h9.81ZM114.76,96.31c.04-9.52-13.16-10.05-13.08-14.31.03-1.29,1.26-2.67,3.96-3.02,1.34-.17,5.03-.31,9.21,1.61l1.64-7.66c-2.25-.81-5.14-1.6-8.73-1.6-9.23,0-15.72,4.9-15.78,11.93-.06,5.2,4.64,8.09,8.17,9.82,3.64,1.77,4.86,2.9,4.84,4.48-.03,2.42-2.91,3.49-5.58,3.53-4.7.07-7.42-1.27-9.59-2.28l-1.69,7.91c2.18,1,6.21,1.87,10.38,1.92,9.81,0,16.23-4.85,16.26-12.35M139.14,108.09h8.63l-7.54-36.09h-7.96c-1.79,0-3.31,1.04-3.98,2.65l-14.01,33.44h9.81l1.95-5.39h11.98l1.13,5.39ZM128.72,95.31l4.92-13.55,2.83,13.55h-7.74ZM89.44,72l-7.72,36.09h-9.34l7.72-36.09h9.33Z"/>
</svg>