<?xml version="1.0" encoding="UTF-8"?>
<svg id="Capa_1" xmlns="http://www.w3.org/2000/svg" viewBox="0 0 180 180">
  <defs>
    <style>
      .cls-1 {
        fill: #0860a8;
      }

      .cls-2 {
        fill: #f9b51d;
      }
    </style>
  </defs>
  <path class="cls-1" d="M126.67,103.39h-15.47c-.49,0-.88-.39-.88-.88s.39-.88.88-.88h15.39c.59-.12,4.65-1.15,4.83-5.92.18-4.73-2.53-5.2-2.97-5.25,0,0-9.92,0-9.93,0-3.98-.66-4.81-4.24-4.7-6.15-.02-4.95,4.16-7.16,6.37-7.64.06-.01.12-.02.19-.02h13.93c.49,0,.88.39.88.88s-.39.88-.88.88h-13.83c-.67.17-4.94,1.44-4.9,5.93,0,.02,0,.04,0,.07,0,.15-.19,3.7,3.16,4.31,0,0,9.81,0,9.8,0,.05,0,4.9.37,4.64,7.07-.2,5.18-4.24,7.23-6.36,7.6-.05,0-.1.01-.15.01Z"/>
  <path class="cls-1" d="M155.82,103.48h-14.28s-.06,0-.09,0c-1.88-.2-5.46-1.51-5.54-5.03-.08-3.74,2.42-15.09,2.52-15.57,0-.04.02-.08.03-.12.09-.24,2.19-5.75,6.83-5.75h10.27c.08,0,.16.01.24.03.18.05,4.39,1.31,4.39,4.94,0,3.05-.89,8.2-.93,8.42-.07.42-.43.72-.86.73l-19.87.17c-.5,2.82-.92,5.66-.88,7.12.06,2.72,3.49,3.26,3.93,3.32h14.22c.49,0,.88.39.88.88s-.39.88-.88.88ZM140.14,83.32c-.1.45-.69,3.15-1.26,6.21l18.79-.16c.25-1.53.79-5.15.79-7.39,0-2.05-2.47-3.02-3.02-3.21h-10.13c-3.24,0-4.97,4.05-5.17,4.55Z"/>
  <path class="cls-1" d="M84.41,115.01c-.05,0-.1,0-.16-.01-.48-.09-.79-.54-.71-1.02,0,0,1.4-7.74,2.81-15.48.7-3.87,1.41-7.74,1.95-10.64.27-1.45.49-2.66.65-3.51.13-.7.22-1.16.32-1.46h-.02c.99-2.72,4.08-5.63,6.36-5.99.08-.01.16-.01.24,0,.58.02,6.15,0,9.83,0h0c.85-.02,5.41,1.7,4.88,5.31,0,.03,0,.06-.01.1l-2.45,14.96s-.01.06-.02.1c-.05.19-1.34,4.61-5.62,5.89-.07.02-.15.03-.23.04l-9.03.26s-.07,0-.11,0c-.14-.01-3-.32-5.29-3.21-.97,5.34-1.94,10.7-2.54,13.97-.08.43-.45.72-.86.72ZM88.26,97.81c1.79,3.4,4.55,3.91,4.95,3.97l8.84-.25c3.07-.99,4.19-4.22,4.32-4.61l2.43-14.85c.25-1.65-2.28-3.42-3.32-3.42-.64,0-2.7,0-4.76.01-1.24,0-2.49,0-3.42,0-.64,0-1.1,0-1.44-.02-1.49.25-4.14,2.62-4.96,4.82-.15.69-1.35,7.2-2.65,14.35Z"/>
  <path class="cls-2" d="M72.54,73.18c0,1.35-1.1,2.45-2.45,2.45s-2.45-1.1-2.45-2.45,1.1-2.45,2.45-2.45,2.45,1.1,2.45,2.45Z"/>
  <circle class="cls-2" cx="64.54" cy="64.86" r="2.45"/>
  <path class="cls-2" d="M61.41,73.18c0,1.35-1.1,2.45-2.45,2.45s-2.45-1.1-2.45-2.45,1.1-2.45,2.45-2.45,2.45,1.1,2.45,2.45Z"/>
  <circle class="cls-2" cx="69.81" cy="106.56" r="2.45"/>
  <circle class="cls-2" cx="64.53" cy="98.74" r="2.45"/>
  <circle class="cls-2" cx="53.71" cy="98.74" r="2.03"/>
  <path class="cls-2" d="M61.15,106.56c0,1.12-.91,2.03-2.03,2.03s-2.03-.91-2.03-2.03.91-2.03,2.03-2.03,2.03.91,2.03,2.03Z"/>
  <circle class="cls-2" cx="53.57" cy="115.14" r="2.03"/>
  <circle class="cls-2" cx="48.32" cy="106.56" r="1.57"/>
  <circle class="cls-2" cx="29.01" cy="90.14" r="1.57"/>
  <circle class="cls-2" cx="31.82" cy="81.77" r="1.57"/>
  <path class="cls-2" d="M38.71,73.18c0,.87-.7,1.57-1.57,1.57s-1.57-.7-1.57-1.57.7-1.57,1.57-1.57,1.57.7,1.57,1.57Z"/>
  <path class="cls-2" d="M44.11,65.04c0,.87-.7,1.57-1.57,1.57s-1.57-.7-1.57-1.57.7-1.57,1.57-1.57,1.57.7,1.57,1.57Z"/>
  <circle class="cls-2" cx="42.69" cy="115.14" r="1.57"/>
  <circle class="cls-2" cx="37.3" cy="106.56" r="1.57"/>
  <circle class="cls-2" cx="31.74" cy="98.74" r="1.57"/>
  <circle class="cls-2" cx="28.78" cy="106.56" r=".81"/>
  <circle class="cls-2" cx="23.72" cy="98.74" r=".81"/>
  <path class="cls-2" d="M21.41,89.99c0,.45-.36.81-.81.81s-.81-.36-.81-.81.36-.81.81-.81.81.36.81.81Z"/>
  <circle class="cls-2" cx="23.49" cy="81.78" r=".81"/>
  <circle class="cls-2" cx="28.97" cy="73.26" r=".81"/>
  <circle class="cls-2" cx="42.62" cy="98.74" r="2.03"/>
  <circle class="cls-2" cx="36.92" cy="90.16" r="2.03"/>
  <path class="cls-2" d="M44.57,81.77c0,1.12-.91,2.03-2.03,2.03s-2.03-.91-2.03-2.03.91-2.03,2.03-2.03,2.03.91,2.03,2.03Z"/>
  <circle class="cls-2" cx="48.17" cy="73.18" r="2.03"/>
  <circle class="cls-2" cx="53.49" cy="64.89" r="2.03"/>
  <circle class="cls-2" cx="48.03" cy="90.16" r="2.45"/>
  <circle class="cls-2" cx="53.49" cy="81.77" r="2.45"/>
  <circle class="cls-2" cx="64.53" cy="115.14" r="2.45"/>
  <rect class="cls-2" x="49.27" y="89.29" width="36.27" height="1.5"/>
  <rect class="cls-2" x="55.31" y="81.01" width="11.41" height="1.5"/>
  <polygon class="cls-2" points="71.61 90.71 65.34 81.01 67.09 81.01 73.37 90.71 71.61 90.71"/>
  <rect class="cls-2" x="66.44" y="97.99" width="5.82" height="1.5"/>
  <polygon class="cls-2" points="70.87 99.49 76.08 90.71 77.58 90.71 72.37 99.49 70.87 99.49"/>
</svg>