<?xml version="1.0" encoding="UTF-8"?>
<svg id="Capa_1" xmlns="http://www.w3.org/2000/svg" viewBox="0 0 180 180">
  <defs>
    <style>
      .cls-1 {
        fill: #dd9c1e;
      }

      .cls-2 {
        fill: #222220;
      }

      .cls-3 {
        fill: #ffa000;
      }

      .cls-4 {
        fill: #ff5d00;
      }

      .cls-5 {
        fill: #ff000b;
      }
    </style>
  </defs>
  <g>
    <path class="cls-2" d="M56.3,121.68c-.29-.29-.64-.52-1.05-.69-.4-.16-.85-.25-1.33-.25-.25,0-.52.02-.79.07-.27.04-.54.12-.8.23-.26.11-.51.26-.75.46-.24.2-.44.44-.62.74-.28-.47-.67-.83-1.15-1.1-.48-.27-1.04-.4-1.66-.4-.21,0-.43.02-.65.06-.22.04-.44.1-.67.2-.22.09-.43.22-.63.38-.2.16-.38.36-.55.61v-1.02h-1.76v8.39h1.78v-4.65c0-.36.06-.67.17-.95.11-.28.26-.51.45-.7.19-.19.41-.33.67-.42.25-.1.53-.14.81-.14.6,0,1.06.19,1.39.57.33.38.5.92.5,1.63v4.67h1.78v-4.65c0-.36.06-.67.17-.95.11-.28.26-.51.45-.7.19-.19.41-.33.67-.42.25-.1.53-.14.81-.14.6,0,1.06.19,1.39.57.33.38.5.92.5,1.63v4.67h1.78v-5.27c0-.49-.08-.94-.24-1.35-.16-.41-.39-.76-.68-1.05Z"/>
    <path class="cls-2" d="M65.68,121.98c-.29-.37-.65-.67-1.09-.9-.43-.22-.95-.34-1.55-.34s-1.14.11-1.65.33c-.51.22-.95.52-1.33.91-.38.39-.68.86-.89,1.4-.22.54-.32,1.13-.32,1.77s.11,1.23.32,1.77c.22.54.51,1.01.89,1.4.38.39.82.7,1.33.91.51.22,1.06.33,1.65.33s1.12-.11,1.55-.33c.43-.22.79-.52,1.09-.89v1.01h1.83v-8.39h-1.83v1.02ZM65.61,126.23c-.12.33-.29.61-.52.85-.22.24-.49.43-.8.56-.31.14-.65.21-1.03.21s-.75-.07-1.06-.21c-.31-.14-.58-.34-.79-.58-.22-.24-.38-.53-.5-.85-.12-.33-.18-.67-.18-1.04s.06-.71.18-1.04c.12-.33.28-.61.5-.85.22-.24.48-.43.79-.58.31-.14.67-.21,1.06-.21s.72.07,1.03.21c.31.14.57.33.8.56.22.24.39.52.52.85.12.33.18.68.18,1.07s-.06.74-.18,1.07Z"/>
    <path class="cls-2" d="M75.92,125.15c-.51-.4-1.23-.67-2.14-.8l-.87-.13c-.19-.03-.37-.06-.54-.1-.17-.04-.32-.09-.44-.15-.12-.06-.22-.15-.29-.25-.07-.1-.11-.22-.11-.37,0-.3.14-.54.42-.72.28-.18.67-.28,1.17-.28.26,0,.52.02.77.07.25.05.49.11.72.18.23.07.43.15.62.23.19.08.34.16.47.24l.79-1.43c-.44-.28-.95-.5-1.53-.65-.58-.15-1.21-.23-1.86-.23-.54,0-1.02.06-1.44.19-.43.13-.79.3-1.09.53-.3.23-.53.51-.69.84-.16.33-.24.71-.24,1.12,0,.68.24,1.22.72,1.64.48.42,1.19.69,2.12.82l.88.11c.5.07.87.18,1.1.34.23.15.35.35.35.59,0,.32-.16.56-.48.75-.32.18-.8.28-1.43.28-.34,0-.65-.02-.92-.07-.27-.05-.52-.11-.74-.19-.22-.08-.43-.17-.6-.27-.18-.1-.34-.21-.49-.33l-.85,1.37c.3.23.62.41.95.55.33.14.66.25.98.33.32.08.62.13.91.16.29.03.54.04.75.04.6,0,1.14-.07,1.62-.2.48-.13.88-.32,1.2-.56.32-.24.57-.53.74-.87s.26-.7.26-1.11c0-.72-.26-1.28-.77-1.68Z"/>
    <path class="cls-2" d="M93.05,121.97c-.35-.39-.76-.69-1.25-.9-.49-.21-1.02-.32-1.61-.32-.62,0-1.18.11-1.69.32-.51.21-.95.51-1.32.9-.37.39-.65.85-.86,1.4-.2.54-.31,1.14-.31,1.79s.1,1.27.32,1.81c.21.54.5,1.01.88,1.39.38.39.83.68,1.36.89.53.21,1.1.32,1.73.32s1.24-.09,1.82-.26c.57-.18,1.12-.48,1.63-.92l-.91-1.3c-.35.28-.74.5-1.16.65-.42.15-.84.23-1.26.23-.3,0-.58-.04-.86-.12-.27-.08-.52-.21-.74-.38-.22-.17-.41-.39-.57-.66-.16-.27-.27-.59-.32-.97h6.2c.01-.1.02-.22.03-.33,0-.12,0-.23,0-.35,0-.65-.1-1.25-.29-1.79-.2-.54-.47-1-.81-1.39ZM87.94,124.44c.05-.3.13-.58.25-.84.12-.25.27-.47.45-.66.18-.18.4-.33.66-.42.25-.1.54-.15.87-.15.58,0,1.06.18,1.43.54.37.36.6.87.7,1.52h-4.35Z"/>
    <path class="cls-2" d="M117.36,121.98c-.29-.37-.65-.67-1.09-.9-.43-.22-.95-.34-1.55-.34s-1.14.11-1.65.33c-.51.22-.95.52-1.33.91-.38.39-.68.86-.89,1.4-.22.54-.32,1.13-.32,1.77s.11,1.23.32,1.77c.22.54.51,1.01.89,1.4.38.39.82.7,1.33.91.51.22,1.06.33,1.65.33s1.12-.11,1.55-.33c.43-.22.79-.52,1.09-.89v1.01h1.83v-8.39h-1.83v1.02ZM117.29,126.23c-.12.33-.29.61-.52.85-.22.24-.49.43-.8.56-.31.14-.65.21-1.03.21s-.75-.07-1.06-.21-.58-.34-.79-.58-.38-.53-.5-.85c-.12-.33-.18-.67-.18-1.04s.06-.71.18-1.04c.12-.33.28-.61.5-.85.22-.24.48-.43.79-.58.31-.14.67-.21,1.06-.21s.72.07,1.03.21c.31.14.57.33.8.56.22.24.39.52.52.85.12.33.18.68.18,1.07s-.06.74-.18,1.07Z"/>
    <path class="cls-2" d="M83.77,127.68c-.29.11-.59.17-.87.17-.19,0-.36-.03-.52-.09-.16-.06-.3-.15-.42-.28-.12-.13-.21-.29-.28-.49s-.11-.44-.11-.72v-3.65h2.94v-1.66h-2.94v-2.54h-1.84v2.54h-1.67v1.66h1.67v3.69c0,1.11.26,1.94.79,2.46.53.53,1.27.79,2.22.79.53,0,1.01-.08,1.43-.25.28-.11.54-.23.78-.37l-.63-1.53c-.18.09-.36.18-.56.25Z"/>
    <path class="cls-2" d="M100.29,120.75c-.51,0-.98.09-1.39.28-.41.19-.76.64-1.04,1.04v-1.1h-1.66v8.39h1.68v-4.61c0-.36.05-.67.15-.95.1-.28.24-.52.41-.71.17-.19.39-.34.63-.44.25-.1.51-.15.81-.15.22,0,.46.03.72.08.13.03.25.06.37.1l.54-1.75c-.15-.05-.3-.09-.45-.11-.22-.04-.48-.06-.76-.06Z"/>
    <path class="cls-2" d="M125.72,120.75c-.51,0-.98.09-1.39.28-.41.19-.76.64-1.04,1.04v-1.1h-1.66v8.39h1.68v-4.61c0-.36.05-.67.15-.95.1-.28.24-.52.41-.71.17-.19.39-.34.63-.44.25-.1.51-.15.81-.15.22,0,.46.03.72.08.13.03.25.06.37.1l.54-1.75c-.15-.05-.3-.09-.45-.11-.22-.04-.48-.06-.76-.06Z"/>
    <path class="cls-2" d="M134.27,117.56v4.42c-.29-.37-.65-.67-1.09-.9-.43-.22-.95-.34-1.55-.34s-1.14.11-1.65.33c-.51.22-.95.52-1.33.91-.38.39-.68.86-.89,1.4-.22.54-.32,1.13-.32,1.77s.11,1.23.32,1.77c.22.54.51,1.01.89,1.4.38.39.82.7,1.33.91.51.22,1.06.33,1.65.33s1.12-.11,1.55-.33c.43-.22.79-.52,1.09-.89v1.01h1.83v-11.8h-1.83ZM134.2,126.23c-.12.33-.29.61-.52.85-.22.24-.49.43-.8.56-.31.14-.65.21-1.03.21s-.75-.07-1.06-.21c-.31-.14-.58-.34-.79-.58-.22-.24-.38-.53-.5-.85-.12-.33-.18-.67-.18-1.04s.06-.71.18-1.04c.12-.33.28-.61.5-.85.22-.24.48-.43.79-.58.31-.14.67-.21,1.06-.21s.72.07,1.03.21c.31.14.57.33.8.56.22.24.39.52.52.85.12.33.18.68.18,1.07s-.06.74-.18,1.07Z"/>
    <path class="cls-2" d="M104.66,123.22c.23-.24.51-.42.83-.55.32-.13.67-.2,1.04-.2h0c.41,0,.79.07,1.15.2.34.13.64.3.89.53l.88-1.46c-.33-.26-.7-.48-1.12-.65-.55-.22-1.15-.34-1.8-.34s-1.25.11-1.8.34c-.55.22-1.03.53-1.43.93-.4.39-.71.86-.94,1.4-.23.54-.34,1.12-.34,1.75s.11,1.21.34,1.75c.23.54.54,1,.94,1.4.4.39.88.7,1.43.93.55.22,1.15.34,1.8.34s1.25-.11,1.8-.34c.41-.17.79-.38,1.12-.65l-.88-1.46c-.25.23-.55.4-.89.53-.35.13-.74.2-1.15.2h0c-.37,0-.72-.07-1.04-.2-.32-.13-.6-.32-.83-.55-.23-.24-.42-.52-.55-.85-.13-.33-.2-.69-.2-1.09s.07-.76.2-1.09c.13-.33.32-.61.55-.85Z"/>
  </g>
  <path class="cls-2" d="M139.95,128.13c.12,0,.24.02.34.07.11.05.2.11.28.18.08.08.14.17.19.27.05.1.07.21.07.33s-.02.23-.07.33c-.05.1-.11.2-.19.27-.08.08-.17.14-.28.18-.11.05-.22.07-.34.07s-.24-.02-.35-.07c-.11-.05-.2-.11-.28-.18-.08-.08-.14-.17-.19-.27-.05-.1-.07-.21-.07-.33s.02-.23.07-.33c.05-.1.11-.19.19-.27.08-.08.17-.14.28-.18.11-.05.22-.07.35-.07ZM139.95,129.6c.09,0,.17-.02.24-.05s.14-.08.2-.13c.06-.06.1-.12.13-.2.03-.07.05-.16.05-.24s-.02-.17-.05-.24c-.03-.08-.08-.14-.13-.2-.06-.06-.12-.1-.2-.13-.07-.03-.15-.05-.24-.05s-.17.02-.24.05c-.08.03-.14.08-.2.13-.06.06-.1.12-.13.2-.03.08-.05.16-.05.24s.02.17.05.24c.03.07.08.14.13.2.06.06.12.1.2.13.08.03.16.05.24.05ZM140,128.6c.1,0,.18.02.24.07.05.05.08.11.08.19,0,.06-.02.11-.06.15-.04.04-.09.07-.17.08l.24.27h-.26l-.21-.26h-.02v.26h-.21v-.76h.38ZM139.84,128.79v.14h.16s.06,0,.08-.02c.02-.01.03-.03.03-.05,0-.02,0-.04-.03-.05-.02-.01-.04-.02-.08-.02h-.16Z"/>
  <g>
    <path class="cls-5" d="M77.94,81.77c0-10.05,4.69-18.99,12-24.78-5.39-4.27-12.2-6.82-19.6-6.82-17.46,0-31.61,14.15-31.61,31.61s14.15,31.61,31.61,31.61c7.41,0,14.22-2.56,19.6-6.82-7.31-5.79-12-14.73-12-24.78Z"/>
    <path class="cls-4" d="M77.94,81.77c0,10.05,4.69,18.99,12,24.78,7.31-5.79,12-14.73,12-24.78s-4.69-18.99-12-24.78c-7.31,5.79-12,14.73-12,24.78Z"/>
    <path class="cls-1" d="M139.01,98.86v-.93h-.37v-.25h1.02v.25h-.37v.93h-.28ZM140.99,98.86v-.82l-.27.71h-.29l-.27-.7v.82h-.28v-1.18h.4l.29.76.29-.76h.4v1.18h-.28Z"/>
    <path class="cls-3" d="M109.55,50.16c-7.41,0-14.22,2.56-19.6,6.82,7.31,5.79,12,14.73,12,24.78s-4.69,18.99-12,24.78c5.39,4.27,12.2,6.82,19.6,6.82,17.46,0,31.61-14.15,31.61-31.61s-14.15-31.61-31.61-31.61Z"/>
  </g>
</svg>