<?xml version="1.0" encoding="UTF-8"?>
<svg id="Capa_1" xmlns="http://www.w3.org/2000/svg" viewBox="0 0 180 180">
  <defs>
    <style>
      .cls-1 {
        fill: #fde401;
      }

      .cls-2 {
        fill: #fd031a;
      }

      .cls-3 {
        fill: #98a4ca;
      }

      .cls-4 {
        fill: #43599f;
      }

      .cls-5 {
        fill: #203a8c;
      }
    </style>
  </defs>
  <path class="cls-1" d="M42.5,82.74c.59-1.44,1.86-2.01,3.2-2.51,10.08-3.74,20.39-6.71,30.88-9.06,10.03-2.25,20.13-4.08,30.4-4.75,3.75-.24,7.5-.32,11.26-.23,2.64.06,3.33.54,4.27,3.03,1.04,2.76,2.09,5.52,3.08,8.3.8,2.24.33,3.13-2.02,3.6-9.61,1.92-19.23,3.77-28.85,5.68-13.32,2.66-26.22,6.77-39.02,11.25-1.9.67-3.8,1.35-5.74,1.89-2.06.58-3.47-.3-4.04-2.37-1.16-4.28-2.29-8.57-3.44-12.86,0-.66,0-1.31,0-1.97Z"/>
  <path class="cls-5" d="M110.74,49.77c1.49.15,2.31,1.15,2.89,2.38,1.18,2.5,2.33,5.01,3.44,7.53.65,1.47.28,2.07-1.36,2.2-3.69.29-7.39.58-11.09.76-14.59.7-28.83,3.44-42.87,7.35-.36.1-.72.21-1.09.29-1.98.43-2.78.05-3.49-1.85-1.09-2.89-2.11-5.81-3.13-8.72-.6-1.72-.31-2.33,1.39-3.07,4.59-1.99,9.45-3.01,14.32-4.02,7.22-1.5,14.53-2.35,21.89-2.79.33-.02.77.18.99-.29h1.13c1.18.3,2.38.07,3.56.15,4.47.06,8.94-.12,13.41.1Z"/>
  <path class="cls-4" d="M110.74,49.77c-4.55,0-9.09,0-13.64,0-.06-.07-.07-.13-.04-.18.03-.05.06-.07.08-.07h13.52c.02.08.05.16.07.24Z"/>
  <path class="cls-3" d="M97.15,49.52c0,.08-.02.17-.04.25-1.11-.16-2.27.42-3.34-.25h3.38Z"/>
  <path class="cls-2" d="M119.38,85.19c2.15.06,2.95.58,3.56,2.35,1.26,3.63,2.49,7.26,3.66,10.92.83,2.57.17,3.88-2.49,4.91-10.4,4.03-20.82,8-31.21,12.04-3.32,1.29-6.58,2.72-9.86,4.11-3.25,1.38-4.89.67-5.99-2.69-1.7-5.21-3.39-10.42-5.04-15.64-.9-2.82-.29-4.05,2.5-5.11,8-3.05,16.32-4.92,24.64-6.8,6.26-1.41,12.57-2.63,18.86-3.92.55-.11,1.11-.13,1.37-.16Z"/>
</svg>