<?xml version="1.0" encoding="UTF-8"?>
<svg id="Capa_1" xmlns="http://www.w3.org/2000/svg" viewBox="0 0 180 180">
  <defs>
    <style>
      .cls-1 {
        font-family: MontserratRoman-SemiBold, Montserrat;
        font-size: 18px;
        font-variation-settings: 'wght' 600;
        font-weight: 600;
      }

      .cls-1, .cls-2 {
        fill: #c68938;
      }
    </style>
  </defs>
  <g>
    <path class="cls-2" d="M67.22,77.85c-5.03-.02-9.17,4.13-9.16,9.18.01,4.93,4.09,9.05,9.02,9.13,5.04.07,9.21-4.03,9.24-9.09.03-5.1-4.01-9.2-9.09-9.22ZM67.24,89.7c-1.64.02-2.67-.96-2.7-2.66-.03-1.72,1.02-2.7,2.63-2.73,1.64-.03,2.58,1.01,2.77,2.65-.16,1.65-1.05,2.72-2.7,2.74Z"/>
    <path class="cls-2" d="M118.8,83.81c-3.3-.1-6.61-.1-9.91,0-1.96.05-3.31,1.57-3.24,3.32.07,1.7,1.38,2.97,3.28,3.05,1.58.07,3.16.01,4.74.02,1.65,0,3.31.05,4.95-.01,1.98-.08,3.35-1.44,3.34-3.21-.01-1.7-1.27-3.1-3.16-3.16Z"/>
    <path class="cls-2" d="M96.96,83.81c-3.3-.1-6.6-.1-9.9,0-1.99.06-3.24,1.5-3.17,3.34.07,1.74,1.31,2.96,3.24,3.05,1.58.07,3.16.01,4.73.01h0c1.65,0,3.3.04,4.95-.02,1.91-.07,3.21-1.31,3.3-3,.09-1.8-1.2-3.31-3.16-3.37Z"/>
    <path class="cls-2" d="M134.76,74.07c0-.06.08-14.28,0-21.32-.06-5.98-4.14-9.99-10.11-9.99-23.09-.02-46.18-.02-69.28,0-5.9,0-10.06,3.89-10.1,9.76-.1,14.8-.11,29.61,0,44.41.05,5.77,4.21,9.65,9.98,9.66,23.16.02,46.33.02,69.49,0,6.54,0,10.46-4.84,10-11.39v-21.13ZM51.77,51.95c.09-1.67,1.29-2.67,3.06-2.74.5-.02,1.01-.02,1.51-.02,22.44,0,44.88,0,67.33,0,3.8,0,4.7.9,4.7,4.67,0,2.57,0,5.14,0,7.86H51.72c0-3.35-.12-6.57.05-9.78ZM124.19,100.16c-22.73,0-45.47,0-68.2,0-3.34,0-4.33-1.01-4.33-4.4,0-8.41,0-16.82,0-25.22,0-.69.08-1.38.12-2.16h76.59c0,1.77,0,27,0,27.67-.04,3.06-1.09,4.12-4.18,4.12Z"/>
  </g>
  <text class="cls-1" transform="translate(57.81 129.96)"><tspan x="0" y="0">Tarjeta </tspan><tspan x="-16.4" y="19">de Crédito</tspan></text>
</svg>