<?xml version="1.0" encoding="UTF-8"?>
<svg id="Capa_1" xmlns="http://www.w3.org/2000/svg" viewBox="0 0 180 180">
  <defs>
    <style>
      .cls-1 {
        fill: #fff;
      }

      .cls-1, .cls-2 {
        fill-rule: evenodd;
      }

      .cls-2 {
        fill: #2666a9;
      }
    </style>
  </defs>
  <polygon class="cls-2" points="51.67 51.67 128.33 51.67 128.33 128.33 51.67 128.33 51.67 51.67 51.67 51.67"/>
  <polygon class="cls-1" points="79.44 116.2 79.44 88.73 128.33 88.78 128.33 96.36 122.68 102.4 128.33 108.49 128.33 116.24 119.3 116.24 114.51 110.95 109.75 116.26 79.44 116.2 79.44 116.2"/>
  <polygon class="cls-2" points="82.71 113.19 82.71 91.75 100.88 91.75 100.88 96.69 88.59 96.69 88.59 100.04 100.59 100.04 100.59 104.9 88.59 104.9 88.59 108.19 100.88 108.19 100.88 113.19 82.71 113.19 82.71 113.19"/>
  <polygon class="cls-2" points="100.79 113.19 110.84 102.46 100.79 91.75 108.57 91.75 114.72 98.55 120.88 91.75 128.33 91.75 128.33 91.92 118.48 102.46 128.33 112.88 128.33 113.19 120.8 113.19 114.55 106.33 108.36 113.19 100.79 113.19 100.79 113.19"/>
  <polygon class="cls-1" points="81.72 64.35 93.51 64.35 97.64 73.75 97.64 64.35 112.19 64.35 114.7 71.39 117.22 64.35 128.33 64.35 128.33 91.82 69.62 91.82 81.72 64.35 81.72 64.35"/>
  <path class="cls-2" d="M83.95,67.34l-9.51,21.41h6.52l1.79-4.29h9.72l1.79,4.29h6.68l-9.47-21.41h-7.54ZM84.77,79.66l2.85-6.82,2.85,6.82h-5.7Z"/>
  <polygon class="cls-2" points="100.87 88.75 100.87 67.33 110.04 67.36 114.75 80.53 119.5 67.33 128.33 67.33 128.33 88.75 122.65 88.8 122.65 74.09 117.29 88.75 112.11 88.75 106.64 74.04 106.64 88.75 100.87 88.75 100.87 88.75"/>
</svg>