<svg xmlns="http://www.w3.org/2000/svg" width="18.045" height="18" viewBox="0 0 18.045 18"><g transform="translate(0.023)"><path d="M17.045,6.08a4.552,4.552,0,0,1-1.316,3.2L9.684,15.332a.545.545,0,0,1-.177.119.551.551,0,0,1-.411,0,.545.545,0,0,1-.177-.119L2.873,9.279A4.525,4.525,0,1,1,9.3,2.913a4.521,4.521,0,0,1,1.467-1,4.574,4.574,0,0,1,1.738-.358A4.5,4.5,0,0,1,17.045,6.08Z" transform="translate(-0.272 0.545)" fill="none"/><rect width="18" height="18" fill="none"/><path d="M17.045,6.08a4.552,4.552,0,0,1-1.316,3.2L9.684,15.332a.545.545,0,0,1-.177.119.551.551,0,0,1-.411,0,.545.545,0,0,1-.177-.119L2.873,9.279A4.525,4.525,0,1,1,9.3,2.913a4.521,4.521,0,0,1,1.467-1,4.574,4.574,0,0,1,1.738-.358A4.5,4.5,0,0,1,17.045,6.08Z" transform="translate(-0.272 0.545)" fill="none" stroke="#131e29" stroke-width="2.5"/></g></svg>