<?xml version="1.0" encoding="UTF-8"?>
<svg id="Capa_2" data-name="Capa 2" xmlns="http://www.w3.org/2000/svg" viewBox="0 0 4621.02 2120.88">
  <defs>
    <style>
      .cls-1 {
        fill: #ea0029;
      }

      .cls-1, .cls-2 {
        stroke-width: 0px;
      }

      .cls-2 {
        fill: none;
      }

      .cls-3 {
        stroke-width: .78px;
      }

      .cls-3, .cls-4 {
        fill: #fff;
        stroke: #1d1d1b;
        stroke-miterlimit: 10;
      }

      .cls-4 {
        stroke-width: 1.94px;
      }
    </style>
  </defs>
  <g id="Capa_1-2" data-name="Capa 1">
    <rect class="cls-2" width="4621.02" height="2120.88"/>
    <g>
      <path class="cls-1" d="M1530.75,139.18h-487.81c0,96-77.82,173.82-173.82,173.82s-173.82-77.82-173.82-173.82H208.25c-38,0-68.8,30.8-68.8,68.8v1704.91c0,38,30.8,68.8,68.8,68.8h487.04c0-96,77.82-173.82,173.82-173.82s173.82,77.82,173.82,173.82h487.81c38,0,68.8-30.81,68.8-68.8V207.98c0-38-30.8-68.8-68.8-68.8Z"/>
      <g>
        <path class="cls-3" d="M1841.64,836.85c-199.51,0-361.24,161.73-361.24,361.24s161.73,361.24,361.24,361.24,361.24-161.73,361.24-361.24-161.73-361.24-361.24-361.24ZM1841.64,1336.18c-76.27,0-138.09-61.83-138.09-138.09s61.83-138.09,138.09-138.09,138.09,61.83,138.09,138.09-61.83,138.09-138.09,138.09Z"/>
        <g>
          <path class="cls-4" d="M3151.91,582.95c-6.94-6.39-16.36-9.41-30.58-9.41h-128.07c-14.21,0-23.63,3.02-30.58,9.41-6.25,6.08-9.59,16.93-9.59,31.62v126.36c0,14.68,3.35,25.53,9.59,31.62,6.94,6.39,16.36,9.41,30.58,9.41h128.07c14.21,0,23.63-3.02,30.58-9.41,6.25-6.08,9.59-16.93,9.59-31.62v-126.36c0-14.68-3.35-25.53-9.59-31.62Z"/>
          <path class="cls-4" d="M3146.62,858.73c-1.09-.85-2.35-1.48-3.55-2.18-2.08-1.06-4.09-2.19-6.53-2.88-4.41-1.38-9.31-2.22-15.21-2.22h-128.07c-5.89,0-10.8.83-15.21,2.22-2.45.69-4.45,1.82-6.53,2.88-1.2.7-2.46,1.32-3.55,2.18-9.55,6.59-14.88,17.45-14.88,33.76v612.52c0,16.31,5.33,27.17,14.88,33.76,1.09.85,2.35,1.48,3.55,2.18,2.08,1.06,4.09,2.19,6.55,2.88,4.41,1.38,9.31,2.22,15.2,2.22h128.07c5.89,0,10.79-.83,15.2-2.22,2.45-.69,4.46-1.82,6.55-2.88,1.2-.7,2.46-1.32,3.55-2.18,9.55-6.59,14.88-17.44,14.88-33.76v-612.52c0-16.32-5.33-27.17-14.88-33.76Z"/>
        </g>
        <path class="cls-4" d="M3903.16,1082.98c-8.49-27.68-20.21-54.04-35.85-78.26-14.9-24.54-33.11-47.13-54.39-67.56-21.56-20.6-44.97-38.22-70.76-53.04-25.2-14.84-52.73-26.03-81.81-34.12-28.74-8.23-58.97-12.18-90.2-12.18-33.7,0-66.14,4.45-96.86,13.18-30.47,8.89-59.07,21.26-85.04,36.9-25.93,15.98-49.81,35.1-70.99,57.34-21.25,22.08-38.9,46.47-53.7,72.83-14.66,26.52-25.96,55.19-33.94,85.35-8.08,30.29-12.02,61.45-12.02,94.22,0,51.58,9.88,99.7,30.23,143.68,20.17,44.49,47.04,82.39,81.64,115.01,34.59,32.62,74.4,58,119.53,76.28,45.73,18.95,94.23,27.69,145.46,27.69,46.07,0,89.23-8.08,130.42-24.87,40.94-16.82,77.94-39.89,111.04-69.7,5.37-4.13,10.29-9.07,14.29-14.33,3.95-5.27,6.24-11.55,6.24-19.12,0-3.62-.31-7.91-1.73-12.03-.73-3.45-3.61-7.91-7.81-12.84l-59.06-66.07c-6.34-5.93-12.38-10.87-17.06-14.33-5.44-3.46-9.98-4.94-15.08-4.94s-9.33,1.16-13.76,3.62c-4.3,2.3-8.98,6.26-15.5,10.88-6.83,6.42-15.22,12.85-26.6,18.95-11.06,5.93-22.91,11.37-36.01,15.81-13.77,4.79-27.25,8.24-41.67,11.04-13.94,2.97-27.7,4.28-40.87,4.28-15.5,0-31.37-2.13-48.18-6.26-16.71-3.62-32.55-10.54-47.7-19.94-14.49-9.39-28.08-22.08-39.2-37.73-11.2-15.83-19.03-35.58-22.5-58.98h403.42c23.09,0,41.05-1.5,53.07-4.13,12.1-2.79,21.15-8.06,26.35-14.82,4.95-7.57,7.9-17.14,8.49-29,.42-12.21.66-28.01.66-46.96,0-29.17-4.19-58-12.51-85.84ZM3430.13,1107.2c6-12.52,14.08-24.88,23.37-36.91,9.57-12.53,20.52-23.4,31.89-32.95,12.38-9.57,25.2-17.15,38.48-22.74,13.9-5.93,28.01-8.56,42.5-8.56,20.28,0,37.82,2.64,52.73,7.74,15.31,4.96,28.74,12.37,40.35,21.42,11.89,9.22,22.19,20.11,31.3,32.13,9.08,12.19,17.96,25.21,25.62,39.87h-286.25Z"/>
        <path class="cls-4" d="M4464.86,1239.01c-10.93-24.18-26.07-45.05-45.62-62.48-19.62-17.27-42.71-31.88-69.53-43.65-26.39-11.93-55.89-23.22-87.83-32.97-8.42-2.83-17.83-4.86-28.44-6.74-9.71-1.89-19.39-4.56-28.34-7.55-9.18-3.45-16.77-7.38-23.05-12.55-6.21-5.19-9.81-12.09-10.31-21.36-.69-12.09,4.1-21.34,14.14-27.15,10.61-6.12,24.51-9.12,42.02-9.12,13.8,0,28.57,2.21,44.89,7.07,15.75,4.56,29.89,13.98,42.54,27.78,2.81,3.31,6.21,6.44,9.35,8.8,3.84,2.51,7.6,4.24,11.6,5.17,3.71,1.25,7.86,1.25,11.93.48,4.49-1.11,8.89-3.14,12.65-6.59,13.81-13.34,26.86-25.27,39.48-36.27,12.88-11,25.83-21.82,39.97-33.13,8.1-7.07,12.02-13.65,12.02-19.94-.33-5.96-3.53-12.56-9.45-19.47-16.78-17.11-33.66-31.86-50.47-44.58-16.71-12.24-34.22-22.3-52.19-30.31-17.68-7.99-36.34-13.64-55.79-17.26-19.72-3.93-40.6-5.5-62.96-5.5-37,0-70.89,4.39-101.28,13.81-29.89,9.12-56.18,22.46-77.46,39.26-22,17.11-38.72,37.67-50.17,61.54-11.76,23.55-17.74,50.08-17.74,79.29,0,24.79,3.23,48.49,9.64,70.79,6.38,22.46,18,43.34,33.69,62.64,16.16,19.77,38.32,37.37,66,52.9,27.71,16.02,62.83,29.37,106.07,40.5,13.28,4.41,25.5,8.18,36.17,11,10.7,3.45,20.01,6.91,27.42,10.84,7.36,4.23,13.34,8.95,17.41,14.91,3.77,5.65,5.75,13.5,5.75,23.24,0,10.84-3.64,19.14-10.44,25.11-7,6.12-15.16,10.69-24.81,12.88-9.9,2.83-19.72,4.39-30.39,4.88-10.51.63-18.99.94-26.06.94-2.68,0-8.09-.94-15.52-2.99-7.93-1.57-17.22-4.39-27.32-8.47-10.37-3.93-21.27-9.43-32.43-15.86-11.07-6.27-21.34-14.45-30.99-24.03-10.54-9.89-19-15.37-25.53-17.57-6.74-2.2-14.21.15-22.76,7.38l-68.61,67.5c-4.22,3.45-7.46,6.91-9.64,11.46-1.95,4.39-2.74,9.27-3.21,14.29,0,5.48.92,10.67,2.81,16.17,1.95,5.65,4.86,10.83,8.55,15.54,15.46,19.31,32.44,35.65,51.34,49.29,19.39,13.34,39.5,24.49,61.01,32.98,21.17,8.47,43.57,14.75,66.23,18.51,22.63,3.93,45.29,5.98,67.29,5.98,38.61,0,74.72-5.04,108.64-14.76,33.36-9.89,62.4-24.01,87.04-42.55,24.58-18.68,44.13-41.43,57.94-68.92,14.2-27.46,21.5-58.24,21.5-92.93s-5.81-64.22-16.71-88.23Z"/>
        <path class="cls-4" d="M2878.04,864.37c-1.55-4.42-5.49-7.7-11.16-10.32-4.1-1.99-10.29-2.97-17.58-3.45-1.86-.15-3.51-.48-5.55-.48h-148.1c-11.08,0-19.61,1.97-26.02,6.08-6.15,4.09-11.73,11.96-16.4,23.78l-116.9,388.16-116.93-388.16c-4.67-11.83-10.25-19.69-16.4-23.78-6.41-4.11-14.94-6.08-26.02-6.08h-148.1c-2.04,0-3.68.33-5.55.48-7.29.48-13.48,1.47-17.58,3.45-5.66,2.63-9.61,5.91-11.16,10.32-1.64,3.15-1.8,7.15-1.49,11.31-.91,8.5,1.08,18.05,6.81,28.91l256.89,619.45c3.11,7.39,7.55,13.13,13.78,17.23,6.08,4.43,16.66,6.4,31.43,6.4h68.6c14.77,0,25.35-1.97,31.43-6.4,6.23-4.09,10.67-9.84,13.78-17.23l256.89-619.45c5.73-10.87,7.73-20.42,6.81-28.92.31-4.16.15-8.16-1.49-11.3Z"/>
        <path class="cls-4" d="M4411.83,713.51c6.28,0,12.38.68,18.25,2.31,5.84,1.7,11.37,3.94,16.49,6.93,5.1,3.05,9.68,6.58,14.02,10.72,4.17,4.14,7.8,8.69,10.95,13.91,2.83,4.96,5.27,10.45,6.85,16.29,1.8,5.84,2.61,11.95,2.61,18.27s-.81,12.14-2.4,17.98c-1.74,5.77-4.08,11.27-7.07,16.22-3.16,5.09-6.58,9.72-10.95,13.85-4.34,4.2-8.83,7.87-14.02,10.72-5.13,3.05-10.75,5.23-16.49,6.92-6.1,1.63-12.28,2.45-18.59,2.45s-12.58-.81-18.32-2.45c-5.8-1.69-11.34-3.87-16.52-6.85-5.23-2.91-9.88-6.58-14.05-10.66-4.14-4.14-7.81-8.89-10.87-13.98-3.09-4.95-5.43-10.45-7.16-16.28-1.5-5.83-2.44-11.95-2.44-18.33s.81-12.15,2.44-17.85c1.73-5.97,4.04-11.33,7.16-16.29,2.96-5.22,6.55-9.77,10.8-13.77,4.24-4.22,8.9-7.81,14.12-10.8,5.18-2.91,10.72-5.23,16.62-6.93,5.87-1.7,12.25-2.37,18.57-2.37ZM4411.73,734.34c-4.38,0-8.7.47-12.82,1.7-4.14,1.16-8.05,2.79-11.54,4.82-3.74,2.04-6.97,4.48-10.01,7.27-2.86,2.99-5.34,6.1-7.51,9.7-1.9,3.54-3.55,7.34-4.71,11.27-1.11,4.07-1.76,8.15-1.76,12.56s.64,8.61,1.76,12.69c1.23,4.01,2.81,7.8,4.88,11.33,2,3.6,4.56,6.73,7.47,9.71,3.03,2.79,6.38,5.29,9.88,7.33,3.43,2.11,7.28,3.73,11.47,4.82,3.87,1.15,8.24,1.63,12.65,1.63,6.62,0,12.94-1.15,18.81-3.74,5.83-2.51,10.88-5.97,15.27-10.18,4.34-4.34,7.77-9.29,10.48-15.13,2.48-5.77,3.8-11.74,3.8-18.33,0-4.41-.64-8.62-1.73-12.62-1.21-4-2.79-7.8-4.91-11.34-2.17-3.6-4.59-6.72-7.64-9.7-2.85-2.78-6.14-5.3-9.74-7.33-3.6-2.11-7.37-3.8-11.4-4.82-4.04-1.16-8.28-1.63-12.7-1.63ZM4385.56,751.18c0-.96.27-1.36.64-1.7.5-.41.91-.68,1.56-.68h32.2c3.03.27,5.87.81,8.48,2.03,2.55,1.22,4.9,2.79,6.76,4.61,1.94,1.9,3.43,4.28,4.51,6.79,1.13,2.65,1.67,5.23,1.67,8.08,0,4.07-.88,7.74-2.88,11.07-1.87,3.18-4.48,5.77-7.84,7.73l11.37,23.48q0,.14.17.34v.2c0,1.08-.76,1.7-2.04,1.7h-16.77c-.89,0-1.39-.54-1.76-1.5l-9.91-21.38h-5.87v20.98c0,.54-.24,1.09-.59,1.36-.37.27-1.04.54-1.63.54h-15.88c-.62,0-1.06-.27-1.56-.54-.37-.27-.64-.81-.64-1.36v-61.76ZM4421.22,770.24c0-.74,0-1.42-.4-2.1-.34-.68-.54-1.36-1.13-1.97-.54-.61-1.31-.95-2.03-1.28-.62-.34-1.4-.48-2.31-.48h-9.5v11.6h9.5c1.7,0,3.13-.54,4.34-1.63.86-1.15,1.53-2.58,1.53-4.14Z"/>
        <path class="cls-4" d="M1307.64,573.67h-216.43c-16.17,0-30.43,10.56-35.16,26.02l-186.55,609.81-186.55-609.81c-4.73-15.46-19-26.01-35.16-26.01h-216.43c-18.82,0-34.6,14.21-36.57,32.93l-94.58,899.57c-2.28,21.71,14.74,40.62,36.57,40.62h173.92c18.58,0,34.23-13.85,36.5-32.29l60.4-491.8,147.48,497.77c4.63,15.61,18.97,26.33,35.26,26.33h158.32c16.28,0,30.63-10.71,35.26-26.32l147.51-497.77,60.4,491.8c2.26,18.44,17.92,32.29,36.5,32.29h173.93c21.83,0,38.85-18.91,36.57-40.62l-94.59-899.57c-1.97-18.72-17.75-32.93-36.57-32.93Z"/>
      </g>
    </g>
  </g>
</svg>