<svg xmlns="http://www.w3.org/2000/svg" width="34.868" height="44" viewBox="0 0 34.868 44"><path d="M33.224,0H21.576a4.151,4.151,0,0,1-8.3,0H1.643A1.643,1.643,0,0,0,0,1.643V42.357A1.643,1.643,0,0,0,1.643,44H13.274a4.151,4.151,0,0,1,8.3,0H33.225a1.643,1.643,0,0,0,1.643-1.643V1.643A1.643,1.643,0,0,0,33.225,0Z" fill="#ea0029"/><g transform="translate(4.892 31.55)"><g transform="translate(15.853)"><path d="M227.028,343.516a.251.251,0,0,0-.183-.056h-.765a.256.256,0,0,0-.183.056.26.26,0,0,0-.057.189v.755a.264.264,0,0,0,.057.189.25.25,0,0,0,.183.056h.765a.256.256,0,0,0,.183-.056.26.26,0,0,0,.057-.189v-.755A.265.265,0,0,0,227.028,343.516Z" transform="translate(-225.84 -343.46)" fill="#fff"/><path d="M227.006,361.583a.1.1,0,0,0-.021-.013.288.288,0,0,0-.039-.017.3.3,0,0,0-.091-.013h-.765a.3.3,0,0,0-.091.013.163.163,0,0,0-.039.017l-.021.013a.227.227,0,0,0-.089.2v3.66a.228.228,0,0,0,.089.2.1.1,0,0,0,.021.013.258.258,0,0,0,.039.017.3.3,0,0,0,.091.013h.765a.3.3,0,0,0,.091-.013.192.192,0,0,0,.039-.017l.021-.013a.227.227,0,0,0,.089-.2v-3.66a.228.228,0,0,0-.089-.2Z" transform="translate(-225.849 -359.879)" fill="#fff"/></g><path d="M247.146,362.124a1.843,1.843,0,0,0-.214-.468,1.944,1.944,0,0,0-.325-.4,2.152,2.152,0,0,0-.423-.317,2.035,2.035,0,0,0-.489-.2,1.94,1.94,0,0,0-.539-.073,2.106,2.106,0,0,0-.579.079,2.154,2.154,0,0,0-.508.22,2.12,2.12,0,0,0-.745.778,2.264,2.264,0,0,0-.2.51,2.151,2.151,0,0,0-.072.563,2.014,2.014,0,0,0,.181.859,2.146,2.146,0,0,0,.488.687,2.276,2.276,0,0,0,.715.456,2.247,2.247,0,0,0,.869.165,2.038,2.038,0,0,0,.779-.149,2.261,2.261,0,0,0,.663-.416.47.47,0,0,0,.085-.085.182.182,0,0,0,.038-.114.225.225,0,0,0-.01-.072.209.209,0,0,0-.047-.077l-.353-.395a1.064,1.064,0,0,0-.1-.085.163.163,0,0,0-.09-.029.158.158,0,0,0-.082.022c-.026.014-.053.038-.093.065a.7.7,0,0,1-.159.113,1.4,1.4,0,0,1-.215.095,1.775,1.775,0,0,1-.249.066,1.142,1.142,0,0,1-.532-.012.908.908,0,0,1-.285-.119.876.876,0,0,1-.234-.225.8.8,0,0,1-.134-.353h2.41a1.592,1.592,0,0,0,.317-.025.266.266,0,0,0,.157-.088.346.346,0,0,0,.051-.174c0-.073,0-.167,0-.28a1.787,1.787,0,0,0-.074-.513Zm-2.826.144a1.279,1.279,0,0,1,.14-.22,1.248,1.248,0,0,1,.19-.2,1.042,1.042,0,0,1,.23-.136.629.629,0,0,1,.254-.051.977.977,0,0,1,.315.046.762.762,0,0,1,.241.128,1.059,1.059,0,0,1,.187.192,1.791,1.791,0,0,1,.153.238h-1.71Z" transform="translate(-225.616 -359.08)" fill="#fff"/><path d="M293.7,363.874a1.1,1.1,0,0,0-.273-.373,1.621,1.621,0,0,0-.415-.261,4.324,4.324,0,0,0-.525-.2,1.213,1.213,0,0,0-.17-.04,1.389,1.389,0,0,1-.169-.045.457.457,0,0,1-.138-.075.171.171,0,0,1-.062-.128.164.164,0,0,1,.085-.163.5.5,0,0,1,.251-.054.922.922,0,0,1,.268.042.563.563,0,0,1,.254.166.3.3,0,0,0,.056.052.22.22,0,0,0,.069.031.144.144,0,0,0,.072,0,.163.163,0,0,0,.075-.039c.083-.08.161-.151.236-.217s.154-.13.239-.2a.168.168,0,0,0,.072-.119.206.206,0,0,0-.056-.117,2.8,2.8,0,0,0-.3-.266,1.7,1.7,0,0,0-.311-.181,1.418,1.418,0,0,0-.333-.1,1.892,1.892,0,0,0-.377-.033,2.053,2.053,0,0,0-.605.083,1.417,1.417,0,0,0-.463.234,1.017,1.017,0,0,0-.3.367,1.054,1.054,0,0,0-.106.474,1.514,1.514,0,0,0,.058.423,1.037,1.037,0,0,0,.2.374,1.353,1.353,0,0,0,.394.316,2.528,2.528,0,0,0,.634.242c.079.027.152.049.216.066a1.026,1.026,0,0,1,.164.064.3.3,0,0,1,.1.089.246.246,0,0,1,.034.139.189.189,0,0,1-.062.15.337.337,0,0,1-.148.077.786.786,0,0,1-.182.029c-.062,0-.114.006-.156.006a.435.435,0,0,1-.093-.017.951.951,0,0,1-.164-.051,1.436,1.436,0,0,1-.194-.095.905.905,0,0,1-.186-.143.466.466,0,0,0-.152-.1.141.141,0,0,0-.136.044l-.41.4a.2.2,0,0,0-.058.069.263.263,0,0,0-.019.085.3.3,0,0,0,.017.1.327.327,0,0,0,.051.093,1.572,1.572,0,0,0,.307.295,1.846,1.846,0,0,0,.365.2,1.891,1.891,0,0,0,.4.11,2.324,2.324,0,0,0,.4.036,2.355,2.355,0,0,0,.649-.088,1.606,1.606,0,0,0,.52-.254,1.178,1.178,0,0,0,.346-.411,1.193,1.193,0,0,0,.129-.555,1.273,1.273,0,0,0-.1-.527Z" transform="translate(-268.816 -359.897)" fill="#fff"/><path d="M180.48,361.544a.115.115,0,0,0-.067-.062.3.3,0,0,0-.1-.02c-.011,0-.021,0-.033,0h-.885a.28.28,0,0,0-.155.037.3.3,0,0,0-.1.142l-.7,2.319-.7-2.319a.3.3,0,0,0-.1-.142.282.282,0,0,0-.155-.037H176.6c-.012,0-.022,0-.033,0a.317.317,0,0,0-.1.02.118.118,0,0,0-.067.062.124.124,0,0,0-.009.068.3.3,0,0,0,.04.173l1.535,3.7a.219.219,0,0,0,.083.1.332.332,0,0,0,.187.039h.41a.33.33,0,0,0,.187-.039.225.225,0,0,0,.083-.1l1.535-3.7a.3.3,0,0,0,.04-.173.136.136,0,0,0-.009-.068Z" transform="translate(-165.076 -359.807)" fill="#fff"/><path d="M316.606,352.57a.392.392,0,0,1,.109.014.444.444,0,0,1,.1.041.47.47,0,0,1,.084.064.416.416,0,0,1,.065.084.463.463,0,0,1,.041.1.362.362,0,0,1,.016.109.378.378,0,0,1-.015.107.41.41,0,0,1-.107.18.4.4,0,0,1-.084.064.421.421,0,0,1-.1.041.415.415,0,0,1-.111.015.388.388,0,0,1-.109-.015.4.4,0,0,1-.1-.041.408.408,0,0,1-.084-.063.444.444,0,0,1-.065-.084.425.425,0,0,1-.043-.1.43.43,0,0,1-.015-.109.369.369,0,0,1,.015-.107.346.346,0,0,1,.043-.1.357.357,0,0,1,.064-.083.41.41,0,0,1,.085-.064.471.471,0,0,1,.1-.041.405.405,0,0,1,.111-.014Zm0,.124a.26.26,0,0,0-.076.01.33.33,0,0,0-.069.028.307.307,0,0,0-.06.043.3.3,0,0,0-.045.058.432.432,0,0,0-.029.067.288.288,0,0,0-.01.075.274.274,0,0,0,.04.144.271.271,0,0,0,.045.058.445.445,0,0,0,.059.044.232.232,0,0,0,.069.029.288.288,0,0,0,.075.01.271.271,0,0,0,.112-.022.293.293,0,0,0,.153-.151.274.274,0,0,0,.023-.109.287.287,0,0,0-.01-.075.3.3,0,0,0-.029-.068.278.278,0,0,0-.046-.058.346.346,0,0,0-.058-.044.233.233,0,0,0-.068-.028.259.259,0,0,0-.076-.01Zm-.156.1a.013.013,0,0,1,0-.01.012.012,0,0,1,.009,0h.192a.151.151,0,0,1,.051.012.143.143,0,0,1,.04.028.119.119,0,0,1,.027.04.125.125,0,0,1,.01.049.127.127,0,0,1-.017.066.118.118,0,0,1-.047.046l.068.141v0h0c0,.007,0,.011-.012.011h-.1c-.005,0-.008,0-.01-.009l-.059-.128h-.035v.125a.027.027,0,0,1,0,.008.016.016,0,0,1-.01,0h-.095l-.009,0a.012.012,0,0,1,0-.008v-.369Zm.213.114a.031.031,0,0,0,0-.013.076.076,0,0,0-.006-.012.043.043,0,0,0-.012-.007.031.031,0,0,0-.014,0h-.057v.069h.057a.038.038,0,0,0,.026-.01.039.039,0,0,0,.009-.025Z" transform="translate(-292.037 -351.733)" fill="#fff"/><path d="M134.179,361.906a2.155,2.155,0,0,0-.461-.684,2.1,2.1,0,0,0-.684-.456,2.205,2.205,0,0,0-1.418-.089,2.093,2.093,0,0,0-.955.546,2.248,2.248,0,0,0-.336.434,2.071,2.071,0,0,0-.217.52,2.223,2.223,0,0,0,0,1.161,2.067,2.067,0,0,0,.217.518,2.12,2.12,0,0,0,.336.435,2.306,2.306,0,0,0,.435.336,2.113,2.113,0,0,0,.52.214,2.176,2.176,0,0,0,.578.076,2.15,2.15,0,0,0,.575-.076,2.193,2.193,0,0,0,.515-.214,2.153,2.153,0,0,0,.434-.336,2.191,2.191,0,0,0,.337-.435,2.235,2.235,0,0,0,.216-.518,2.224,2.224,0,0,0-.092-1.431Zm-1.194,1.073a.861.861,0,0,1-.083.2.831.831,0,0,1-.295.295.8.8,0,0,1-.2.082.837.837,0,0,1-.44,0,.841.841,0,0,1-.2-.082.864.864,0,0,1-.166-.129.838.838,0,0,1-.129-.166.774.774,0,0,1-.083-.2.852.852,0,0,1,0-.444.761.761,0,0,1,.083-.2.818.818,0,0,1,.295-.294.8.8,0,0,1,.2-.081.794.794,0,0,1,.22-.029.818.818,0,0,1,.824.825.8.8,0,0,1-.029.221Z" transform="translate(-122.978 -359.026)" fill="#fff"/><path d="M59.277,343.47H57.984a.221.221,0,0,0-.21.155l-1.114,3.644-1.114-3.644a.22.22,0,0,0-.21-.155H54.041a.22.22,0,0,0-.219.2l-.565,5.376a.22.22,0,0,0,.219.242h1.039a.219.219,0,0,0,.218-.193l.361-2.939.881,2.974a.219.219,0,0,0,.21.157h.946a.22.22,0,0,0,.21-.157l.882-2.974.361,2.939a.22.22,0,0,0,.218.193h1.039a.22.22,0,0,0,.219-.242l-.565-5.376a.219.219,0,0,0-.219-.2Z" transform="translate(-53.256 -343.469)" fill="#fff"/></g><path d="M74.6,72.33H69.8a.816.816,0,0,0-.78.577L64.877,86.438,60.737,72.907a.816.816,0,0,0-.78-.577h-4.8a.815.815,0,0,0-.811.73l-2.1,19.961a.816.816,0,0,0,.811.9h3.859a.817.817,0,0,0,.81-.716l1.34-10.913,3.273,11.045a.816.816,0,0,0,.783.584h3.513a.817.817,0,0,0,.783-.584l3.273-11.045,1.34,10.913a.817.817,0,0,0,.81.716H76.7a.815.815,0,0,0,.811-.9l-2.1-19.961a.816.816,0,0,0-.811-.73Z" transform="translate(-47.442 -65.686)" fill="#fff"/><path d="M307.438,72.31a.815.815,0,0,1,.222.028.88.88,0,0,1,.2.085.934.934,0,0,1,.171.13.893.893,0,0,1,.133.169.871.871,0,0,1,.084.2.743.743,0,0,1,.032.222.816.816,0,0,1-.029.219.864.864,0,0,1-.086.2.844.844,0,0,1-.133.169.8.8,0,0,1-.171.13.917.917,0,0,1-.2.085.872.872,0,0,1-.449,0,.878.878,0,0,1-.2-.084.82.82,0,0,1-.171-.13.918.918,0,0,1-.132-.17.8.8,0,0,1-.087-.2.885.885,0,0,1-.029-.223.781.781,0,0,1,.117-.415.709.709,0,0,1,.131-.167.826.826,0,0,1,.172-.131.959.959,0,0,1,.2-.085.838.838,0,0,1,.226-.028Zm0,.254a.556.556,0,0,0-.156.02.582.582,0,0,0-.141.059.618.618,0,0,0-.122.088.681.681,0,0,0-.092.118.719.719,0,0,0-.057.137.561.561,0,0,0-.021.152.561.561,0,0,0,.081.292.536.536,0,0,0,.091.118.7.7,0,0,0,.12.089.515.515,0,0,0,.14.059.555.555,0,0,0,.154.02.565.565,0,0,0,.229-.045.614.614,0,0,0,.186-.124.621.621,0,0,0,.128-.184.551.551,0,0,0,.046-.223.563.563,0,0,0-.021-.153.614.614,0,0,0-.06-.138.607.607,0,0,0-.093-.118.572.572,0,0,0-.118-.089.557.557,0,0,0-.139-.059A.574.574,0,0,0,307.437,72.564Zm-.319.2a.025.025,0,0,1,.008-.021.031.031,0,0,1,.019-.008h.391a.313.313,0,0,1,.1.025.293.293,0,0,1,.082.056.266.266,0,0,1,.055.083.242.242,0,0,1,.02.1.255.255,0,0,1-.13.229l.139.286a.009.009,0,0,0,0,0v0c0,.013-.009.02-.025.02h-.2c-.011,0-.017-.006-.021-.018l-.12-.26h-.072v.255a.021.021,0,0,1-.007.017.035.035,0,0,1-.02.006h-.193a.048.048,0,0,1-.019-.006.022.022,0,0,1-.008-.017v-.751Zm.434.232a.05.05,0,0,0,0-.026.089.089,0,0,0-.014-.024.063.063,0,0,0-.025-.016.054.054,0,0,0-.028-.006h-.116v.141h.116a.076.076,0,0,0,.053-.02A.086.086,0,0,0,307.552,73Z" transform="translate(-278.427 -65.668)" fill="#fff"/></svg>