<svg xmlns="http://www.w3.org/2000/svg" xmlns:xlink="http://www.w3.org/1999/xlink" width="16" height="16" viewBox="0 0 16 16"><defs><clipPath id="a"><rect width="16" height="12.444" fill="none"/></clipPath></defs><g transform="translate(-271 -8225)"><rect width="16" height="16" transform="translate(271 8225)" fill="none"/><g transform="translate(271 8226.778)"><g clip-path="url(#a)"><path d="M15.5,0H.5A.5.5,0,0,0,0,.5V11.944a.5.5,0,0,0,.5.5h15a.5.5,0,0,0,.5-.5V.5a.5.5,0,0,0-.5-.5M14.047,1,8,6.756,1.952,1ZM15,11.444H1V1.474L7.655,7.809a.5.5,0,0,0,.689,0L15,1.474Z" fill="#131e29"/></g></g></g></svg>