<svg xmlns="http://www.w3.org/2000/svg" width="16" height="16.005" viewBox="0 0 16 16.005"><g transform="translate(-329 -8225)"><rect width="16" height="16" transform="translate(329 8225)" fill="none"/><circle cx="1" cy="1" r="1" transform="translate(333 8232)" fill="#131e29"/><circle cx="1" cy="1" r="1" transform="translate(336 8232)" fill="#131e29"/><circle cx="1" cy="1" r="1" transform="translate(339 8232)" fill="#131e29"/><path d="M8.153,16.005a8.4,8.4,0,0,1-5.98-2.55A7.5,7.5,0,0,1,0,8,7.882,7.882,0,0,1,2.328,2.374,7.937,7.937,0,0,1,7.986,0c.243,0,.489.011.731.034a7.465,7.465,0,0,1,3.932,1.443,8.366,8.366,0,0,1,3.338,7.108,7.475,7.475,0,0,1-1.39,3.942,4.627,4.627,0,0,0,.251,1.38c.037.133.073.259.1.367A.6.6,0,0,1,14.6,15l-.089.036h-.2l-.062-.016c-.152-.04-.329-.1-.516-.165a4.234,4.234,0,0,0-1.094-.279.355.355,0,0,0-.089.009l0,0A7.415,7.415,0,0,1,8.153,16.005ZM7.986,1a6.944,6.944,0,0,0-4.949,2.08A6.888,6.888,0,0,0,1,8v.016a6.508,6.508,0,0,0,1.887,4.74,7.5,7.5,0,0,0,5.264,2.248,6.422,6.422,0,0,0,3.795-1.224,1.1,1.1,0,0,1,.688-.208,3.872,3.872,0,0,1,1.15.242c-.21-.8-.31-1.443-.014-1.857A6.755,6.755,0,0,0,14.3,5.034a6.739,6.739,0,0,0-5.652-4H8.631C8.417,1.01,8.2,1,7.986,1Z" transform="translate(329 8225)" fill="#131e29"/></g></svg>