<svg xmlns="http://www.w3.org/2000/svg" width="16" height="16" viewBox="0 0 16 16"><g transform="translate(-296 -8225)"><rect width="16" height="16" transform="translate(296 8225)" fill="none"/><path d="M16.431,17.78a15.254,15.254,0,0,1-5.615-1.022A12.758,12.758,0,0,1,3.522,9.464,15.254,15.254,0,0,1,2.5,3.849a.5.5,0,0,1,.379-.485l1.554-.389A3.112,3.112,0,0,1,5.755,2.8a1.681,1.681,0,0,1,.85.434A3.111,3.111,0,0,1,7.239,4.41l.562,1.4a2.923,2.923,0,0,1,.268.89,1.675,1.675,0,0,1-.1.69,2.923,2.923,0,0,1-.5.781l-.011.013L5.28,10.795A11.683,11.683,0,0,0,9.859,15.21l2.176-2.142a2.956,2.956,0,0,1,.809-.665,1.693,1.693,0,0,1,.763-.157,2.969,2.969,0,0,1,1.009.294l1.253.5a3.111,3.111,0,0,1,1.172.635,1.682,1.682,0,0,1,.434.85,3.111,3.111,0,0,1-.172,1.322L16.916,17.4A.5.5,0,0,1,16.431,17.78Zm-5.616-2.108a13.981,13.981,0,0,0,5.227,1.1l.293-1.171a2.966,2.966,0,0,0,.159-.895.684.684,0,0,0-.177-.345,2.966,2.966,0,0,0-.819-.395l-1.253-.5a2.683,2.683,0,0,0-.669-.223.688.688,0,0,0-.31.064,2.678,2.678,0,0,0-.526.468l0,0ZM3.5,4.238a13.851,13.851,0,0,0,1.272,5.6L6.683,7.554a2.562,2.562,0,0,0,.348-.5.681.681,0,0,0,.04-.281,2.61,2.61,0,0,0-.2-.586l-.562-1.4a2.966,2.966,0,0,0-.395-.819.684.684,0,0,0-.345-.177,2.967,2.967,0,0,0-.895.159Z" transform="translate(294 8222.721)" fill="#131e29"/></g></svg>