<?xml version="1.0" encoding="UTF-8"?>
<svg id="Capa_2" data-name="Capa 2" xmlns="http://www.w3.org/2000/svg" viewBox="0 0 800 800">
  <defs>
    <style>
      .cls-1 {
        fill: none;
      }

      .cls-1, .cls-2 {
        stroke-width: 0px;
      }

      .cls-2 {
        fill: #131e29;
      }
    </style>
  </defs>
  <g id="Capa_1-2" data-name="Capa 1">
    <g>
      <rect class="cls-1" width="800" height="800"/>
      <path class="cls-2" d="M692.42,94.66c-40.04,21.08-82.32,38.21-125.87,51.15-2.76-16.54-6.58-32.3-11.85-46.9C531.76,35.43,483.64,2.28,411.67.37c-44.84-1.19-81.37,11.62-108.53,38.08-28.5,27.76-43.36,66.63-51.06,111.65-49.81-13.3-98.22-31.87-144.86-55.63l-44.73-22.79v728l675.05.04V70.91l-45.1,23.75ZM346.07,82.53c15.03-14.64,35.96-21.39,63.97-20.65,62,1.65,86.81,32.54,96.43,98.95-34.15,6.96-68.78,11.37-103.46,13.11-30.64-1.65-60.9-5.16-90.74-10.48,5.57-34.44,15.66-63.26,33.81-80.93ZM675.98,738.17l-551.97-.03V170.37c36.24,15.72,73.66,28.77,111.77,38.97,3.25.87,6.51,1.72,9.78,2.55-1.3,23.84-1.59,48.6-1.59,73.73,0,16.99,13.78,30.77,30.77,30.77s30.77-13.78,30.77-30.77c0-20.43.19-40.92,1.04-60.75,31.37,5.41,63.06,8.97,94.8,10.61l1.53.08,1.53-.07c35.87-1.72,71.66-6.03,106.95-12.82.67,19.13.89,40.08.89,62.95,0,16.99,13.78,30.77,30.77,30.77s30.77-13.78,30.77-30.77c0-25.81,0-51.95-1.16-77.4,35.26-9.89,69.85-22.35,103.34-37.24v567.19Z"/>
    </g>
  </g>
</svg>