<?xml version="1.0" encoding="UTF-8"?>
<svg id="Capa_2" data-name="Capa 2" xmlns="http://www.w3.org/2000/svg" viewBox="0 0 800 800">
  <defs>
    <style>
      .cls-1 {
        fill: none;
      }

      .cls-1, .cls-2 {
        stroke-width: 0px;
      }

      .cls-2 {
        fill: #131e29;
      }
    </style>
  </defs>
  <g id="Capa_1-2" data-name="Capa 1">
    <g>
      <rect class="cls-1" width="800" height="800"/>
      <path class="cls-2" d="M490.63,798.91c-8.47,0-16.5-3.17-22.7-9-4.08-3.83-7.06-8.51-8.77-13.67-40.59-86.86-98.73-210.97-117.41-250.12L34.04,455.27c-8.94-1.82-16.66-7.24-21.43-15.11-4.52-7.46-5.88-16.26-3.79-24.75,2.08-8.5,7.35-15.67,14.83-20.2l1.29-.74L739.66,7.55c3.32-2.46,7.11-4.29,11.23-5.38,8.49-2.23,17.34-1.03,24.93,3.4,14.41,8.41,20.05,26.16,13.73,41.14l-266.67,727c-1.35,5.46-4.08,10.52-8.04,14.73-6.07,6.46-14.29,10.17-23.15,10.45-.35.01-.71.02-1.06.02ZM369.76,469.58c6.48,1.49,15.18,5.6,20.84,16.56.32.63.79,1.56,1.39,2.78.99,2.02,2.42,4.97,4.22,8.73,3.32,6.95,8.16,17.15,14.37,30.31,10.44,22.11,24.93,52.94,43.06,91.62,11.82,25.22,23.69,50.56,33.85,72.28L706.25,95.48,121.05,412.28l248.72,57.26v.04Z"/>
    </g>
  </g>
</svg>