<?xml version="1.0" encoding="UTF-8"?>
<svg id="Capa_2" data-name="Capa 2" xmlns="http://www.w3.org/2000/svg" viewBox="0 0 800 800.02">
  <defs>
    <style>
      .cls-1 {
        fill: none;
      }

      .cls-1, .cls-2 {
        stroke-width: 0px;
      }

      .cls-2 {
        fill: #131e29;
      }
    </style>
  </defs>
  <g id="Capa_1-2" data-name="Capa 1">
    <g>
      <rect class="cls-1" x="0" width="800" height="800"/>
      <g id="Grupo_1192" data-name="Grupo 1192">
        <rect id="Rectángulo_474" data-name="Rectángulo 474" class="cls-1" y="0" width="800" height="800"/>
        <path class="cls-2" d="M763.26,800.02h-24.03c-106.25,0-206.45-18.25-297.8-54.23-89.5-35.26-168.39-86.64-234.48-152.72-66.08-66.08-117.47-144.97-152.72-234.48C18.25,267.24,0,167.04,0,60.79v-24.03L103.85,10.81C126.06,2.99,149.25-.37,172.79.83l2.08.11,2.05.39c17.7,3.33,33.96,11.65,47.01,24.06l1.5,1.43,1.3,1.62c14.75,18.38,25.6,39.14,32.27,61.72l28.64,71.66c7.07,14.74,11.96,30.4,14.53,46.55l.22,1.35.09,1.37c.9,13.05-.91,25.9-5.37,38.2l-.48,1.31-.59,1.26c-7.02,14.97-16.18,28.79-27.22,41.1l-112.35,134.61c56.78,95.94,137.09,173.44,235.47,227.06l111.51-109.74c12.05-14,26.2-25.91,42.07-35.39l1.36-.81,1.43-.67c13.15-6.12,27.77-9.11,42.24-8.68l1.59.05,1.57.21c18.36,2.47,36.08,7.86,52.71,16.01l63.47,25.42c22.57,6.67,43.33,17.52,61.71,32.26l1.62,1.3,1.43,1.5c12.41,13.06,20.73,29.31,24.06,47.01l.39,2.05.11,2.08c1.19,23.54-2.16,46.73-9.98,68.94l-25.95,103.85ZM450.87,682.95c79.22,33.29,168.15,52.46,264.42,55.19l14.96-59.88.54-1.48c5.15-14.21,7.51-29.04,7.04-44.11-1.18-4.72-3.41-9.1-6.56-12.81-11.94-9.21-25.34-15.97-39.87-20.12l-1.52-.43-68.65-27.49-1.14-.57c-10.36-5.18-21.4-8.68-32.84-10.41-3.99.06-7.97.88-11.67,2.4-9.85,6.1-18.63,13.67-26.12,22.52l-.91,1.07-1,.98-96.68,95.16ZM61.88,84.73c2.95,104.2,25.16,199.79,63.71,283.79l96.76-115.92.41-.45c6.8-7.52,12.48-15.93,16.91-25.04,1.1-3.43,1.59-6.98,1.48-10.59-1.73-9.99-4.86-19.67-9.32-28.79l-.5-1.03-30.61-76.58-.43-1.51c-4.15-14.53-10.92-27.93-20.12-39.87-3.72-3.14-8.09-5.38-12.81-6.56-15.08-.47-29.9,1.89-44.11,7.04l-1.48.54-59.88,14.97Z"/>
      </g>
    </g>
  </g>
</svg>