<?xml version="1.0" encoding="UTF-8"?>
<svg id="Capa_2" data-name="Capa 2" xmlns="http://www.w3.org/2000/svg" viewBox="0 0 800 800">
  <defs>
    <style>
      .cls-1 {
        fill: none;
      }

      .cls-1, .cls-2 {
        stroke-width: 0px;
      }

      .cls-2 {
        fill: #131e29;
      }
    </style>
  </defs>
  <g id="Capa_1-2" data-name="Capa 1">
    <g>
      <rect class="cls-1" width="800" height="800"/>
      <path class="cls-2" d="M771.82,352.92l-4.48-5.68h-.26l-56.02-74.67v-1.6l-4.31-4.4c-15.62-18.77-40.38-43.37-75.97-43.37h-123.08c-.16,0-.32,0-.49,0v-78.14c0-32.88-26.1-59.62-58.17-59.62H59.12C26.78,85.44.47,111.75.47,144.09v432.49c0,33.67,27.39,61.05,61.06,61.05h51.15c5.84,19.8,17.36,37.68,33.22,51.25,19.35,16.56,44.02,25.68,69.48,25.68s50.13-9.12,69.48-25.68c15.86-13.57,27.38-31.45,33.22-51.25h194.61c5.84,19.8,17.36,37.68,33.22,51.25,19.35,16.56,44.03,25.68,69.48,25.68,48.6,0,89.76-32.51,102.86-76.93h20.22c33.67,0,61.06-27.39,61.06-61.05v-148.09c0-39.91-26.58-74.13-27.71-75.57ZM215.38,560.71c26.15,0,46.64,20.49,46.64,46.64s-20.48,46.64-46.64,46.64-46.64-20.49-46.64-46.64,20.48-46.64,46.64-46.64ZM215.38,500.14c-25.46,0-50.13,9.12-69.48,25.67-15.86,13.57-27.38,31.44-33.22,51.25h-49.14c-.84-.64-1.86-1.66-2.5-2.5V146.01h385.59v431.04h-128.55c-5.84-19.8-17.36-37.67-33.22-51.25-19.35-16.56-44.03-25.67-69.48-25.67ZM615.39,653.99c-26.15,0-46.64-20.49-46.64-46.64s20.48-46.64,46.64-46.64,46.64,20.49,46.64,46.64-20.48,46.64-46.64,46.64ZM615.39,500.14c-25.45,0-50.13,9.12-69.48,25.67-15.86,13.57-27.38,31.45-33.22,51.25h-3.79c-.34-.19-.82-.51-1.24-.93-.21-.21-.35-.4-.44-.54v-289.33c.63-.84,1.65-1.85,2.49-2.49h121.08c4.59,0,17.64,7.63,29.31,21.44.22.27.44.52.65.75l1.67,2.33,60.25,80.33c3.74,6.56,12.53,23.81,14.53,36.18.21,1.75,1.77,14.94,1.77,28.67v121.09c-.63.83-1.65,1.85-2.48,2.48h-18.23c-13.1-44.41-54.26-76.92-102.86-76.92Z"/>
    </g>
  </g>
</svg>