<svg xmlns="http://www.w3.org/2000/svg" width="32" height="32" viewBox="0 0 32 32"><g transform="translate(-2171 -10298)"><rect width="32" height="32" transform="translate(2171 10298)" fill="none"/><g transform="translate(2180 10306)"><path d="M60.1,19.422a3.642,3.642,0,0,1-.315-.183,4.429,4.429,0,0,1-.809-.687,3.815,3.815,0,0,1-.912-1.881h0a2.317,2.317,0,0,1-.036-.67H55.283V26.625c0,.143,0,.284-.006.423,0,.017,0,.033,0,.052a.114.114,0,0,1,0,.024v.006A2.333,2.333,0,0,1,54.1,28.982a2.293,2.293,0,0,1-1.137.3,2.333,2.333,0,0,1,0-4.666,2.3,2.3,0,0,1,.714.113l0-2.8a5.1,5.1,0,0,0-3.933,1.151,5.393,5.393,0,0,0-1.177,1.451,5.028,5.028,0,0,0-.607,2.308,5.447,5.447,0,0,0,.295,1.824v.007A5.37,5.37,0,0,0,49,30.032a5.584,5.584,0,0,0,1.19,1.123v-.007l.007.007A5.142,5.142,0,0,0,53.005,32a4.966,4.966,0,0,0,2.082-.46,5.225,5.225,0,0,0,1.691-1.271,5.282,5.282,0,0,0,.921-1.531,5.735,5.735,0,0,0,.332-1.751V21.349c.033.02.477.314.477.314a6.355,6.355,0,0,0,1.638.677,9.43,9.43,0,0,0,1.681.23V19.842A3.563,3.563,0,0,1,60.1,19.422Z" transform="translate(-47.959 -16)" fill="#131e29"/></g></g></svg>