<svg xmlns="http://www.w3.org/2000/svg" width="32" height="32" viewBox="0 0 32 32"><g transform="translate(-920 -446)"><rect width="32" height="32" transform="translate(920 446)" fill="none"/><g transform="translate(928.001 454)"><path d="M17.847,13.6a4.13,4.13,0,1,0,4.133,4.131A4.13,4.13,0,0,0,17.847,13.6Zm0,6.77a2.646,2.646,0,1,1,2.643-2.643,2.646,2.646,0,0,1-2.643,2.643Z" transform="translate(-9.846 -9.761)" fill="#131e29"/><circle cx="0.937" cy="0.937" r="0.937" transform="translate(11.352 2.807)" fill="#131e29"/><path d="M14.7,1.316A4.59,4.59,0,0,0,11.309-.007H4.669A4.418,4.418,0,0,0-.008,4.67v6.607a4.635,4.635,0,0,0,1.354,3.453A4.711,4.711,0,0,0,4.7,15.987h6.576a4.753,4.753,0,0,0,3.385-1.258,4.625,4.625,0,0,0,1.323-3.419V4.67A4.621,4.621,0,0,0,14.7,1.316Zm-.13,9.994a3.157,3.157,0,0,1-.934,2.355,3.343,3.343,0,0,1-2.355.846H4.7a3.343,3.343,0,0,1-2.355-.846,3.252,3.252,0,0,1-.869-2.389V4.67a3.227,3.227,0,0,1,.869-2.355A3.289,3.289,0,0,1,4.7,1.468h6.643a3.216,3.216,0,0,1,2.353.869,3.326,3.326,0,0,1,.872,2.324Z" transform="translate(0.012 0.01)" fill="#131e29"/></g></g></svg>