<svg xmlns="http://www.w3.org/2000/svg" width="32" height="32" viewBox="0 0 32 32"><g transform="translate(-2203 -10298)"><rect width="32" height="32" transform="translate(2203 10298)" fill="none"/><g transform="translate(2211 10308)"><path d="M19.67,8.14a2,2,0,0,0-1.42-1.43A48.441,48.441,0,0,0,12,6.38a48.442,48.442,0,0,0-6.25.33A2,2,0,0,0,4.33,8.14,21.27,21.27,0,0,0,4,12a21.42,21.42,0,0,0,.33,3.88,2,2,0,0,0,1.42,1.4,48.433,48.433,0,0,0,6.25.33,48.433,48.433,0,0,0,6.25-.33,2,2,0,0,0,1.42-1.4A21.42,21.42,0,0,0,20,12,21.265,21.265,0,0,0,19.67,8.14Zm-9.31,6.25V9.63L14.55,12l-4.19,2.38Z" transform="translate(-4 -6.377)" fill="#131e29"/></g></g></svg>