<svg xmlns="http://www.w3.org/2000/svg" width="17.5" height="17.5" viewBox="0 0 17.5 17.5"><g transform="translate(-3.25 20.75) rotate(-90)"><path d="M8-.75A8.75,8.75,0,1,1-.75,8,8.76,8.76,0,0,1,8-.75Zm0,16A7.25,7.25,0,1,0,.75,8,7.258,7.258,0,0,0,8,15.25Z" transform="translate(4 4)" fill="#222"/><path d="M20.976,18.489a9.014,9.014,0,0,0-3.189-2.711,9.51,9.51,0,0,0-8.33-.132,9.056,9.056,0,0,0-3.282,2.61l-1.183-.922a10.563,10.563,0,0,1,3.828-3.046,11.01,11.01,0,0,1,9.65.153,10.52,10.52,0,0,1,3.721,3.166Z" transform="translate(-1.583 -6.049)" fill="#222"/><path d="M15.393,4.489A9.014,9.014,0,0,0,12.2,1.778a9.51,9.51,0,0,0-8.33-.132A9.056,9.056,0,0,0,.592,4.256L-.592,3.334A10.563,10.563,0,0,1,3.236.288a11.01,11.01,0,0,1,9.65.153,10.52,10.52,0,0,1,3.721,3.166Z" transform="translate(20 16) rotate(180)" fill="#222"/><path d="M12.75,20h-1.5V4h1.5Z" transform="translate(0)" fill="#222"/><path d="M.75,16H-.75V0H.75Z" transform="translate(4 12) rotate(-90)" fill="#222"/></g></svg>